<svg width="46" height="48" viewBox="0 0 46 48" fill="none" xmlns="http://www.w3.org/2000/svg">
<path d="M11.167 36.6667V7.33333C11.167 6.8471 11.3601 6.38079 11.704 6.03697C12.0478 5.69315 12.5141 5.5 13.0003 5.5H24.3157C25.288 5.50021 26.2205 5.88665 26.908 6.57433L35.7593 15.4257C36.447 16.1131 36.8335 17.0456 36.8337 18.018V36.6667C36.8337 37.1529 36.6405 37.6192 36.2967 37.963C35.9529 38.3068 35.4866 38.5 35.0003 38.5H13.0003C12.5141 38.5 12.0478 38.3068 11.704 37.963C11.3601 37.6192 11.167 37.1529 11.167 36.6667Z" stroke="url(#paint0_linear_396_1705)" stroke-width="3.66667" stroke-linejoin="round"/>
<path d="M24 5.5V16.5C24 16.9862 24.1932 17.4525 24.537 17.7964C24.8808 18.1402 25.3471 18.3333 25.8333 18.3333H36.8333" stroke="url(#paint1_linear_396_1705)" stroke-width="3.66667" stroke-linejoin="round"/>
<circle cx="15.0579" cy="32.9422" r="9.48077" fill="white"/>
<path d="M14.5 23.4619C16.9658 23.462 19.0962 24.3335 20.8242 26.0615C22.3315 27.5688 23.1855 29.3823 23.3789 31.457C24.5271 31.7651 25.5221 32.3835 26.3369 33.3057C27.3639 34.468 27.8856 35.8512 27.8848 37.4043L27.877 37.7178C27.8064 39.2731 27.2073 40.6345 26.0947 41.748C24.9075 42.9362 23.4372 43.5388 21.75 43.5381V43.5391H8.36523C6.38541 43.5391 4.65921 42.8416 3.25 41.4648C1.83443 40.0818 1.11616 38.3616 1.11523 36.373V36.3721C1.11529 34.6793 1.63116 33.1471 2.65723 31.8154C3.55637 30.6485 4.70939 29.8403 6.08789 29.4043C6.66357 27.7407 7.66551 26.3564 9.08398 25.2783C10.6741 24.0699 12.4924 23.4619 14.5 23.4619ZM18.9414 34.373L14.2363 39.0771H21.75C22.2428 39.0771 22.6161 38.919 22.9404 38.5947C23.2647 38.2704 23.4228 37.8971 23.4229 37.4043C23.4229 36.9114 23.2648 36.5372 22.9404 36.2129C22.6162 35.8888 22.2427 35.7315 21.75 35.7314H18.9609V34.3506C18.9541 34.3576 18.9484 34.3661 18.9414 34.373ZM8.36523 33.5C7.58293 33.5 6.9464 33.7637 6.39355 34.3164C5.84062 34.8693 5.57617 35.5066 5.57617 36.2891C5.57626 37.0714 5.84071 37.7079 6.39355 38.2607C6.94643 38.8135 7.58287 39.0771 8.36523 39.0771H11.082L8.71484 36.6826V36.6816C8.29193 36.257 8.05868 35.7132 8.05859 35.1045C8.05859 34.4927 8.29394 33.9464 8.71973 33.5205C8.72686 33.5134 8.73499 33.507 8.74219 33.5H8.36523ZM14.5 27.9229C13.2525 27.9235 12.2209 28.351 11.3428 29.2285C10.465 30.1057 10.0381 31.1367 10.0381 32.3848V32.873C10.1202 32.8638 10.2039 32.8584 10.2891 32.8584C10.9017 32.8584 11.4402 33.1023 11.8584 33.5205L12.6309 34.293L15.7461 31.1777C16.1787 30.7451 16.7326 30.5166 17.3438 30.5166C17.8744 30.5166 18.3614 30.6891 18.7637 31.0176C18.5581 30.3545 18.1911 29.7625 17.6562 29.2275C16.7783 28.3495 15.747 27.9223 14.5 27.9229Z" fill="url(#paint2_linear_396_1705)" stroke="white" stroke-width="2.23077"/>
<defs>
<linearGradient id="paint0_linear_396_1705" x1="16.1371" y1="33.922" x2="37.1004" y2="14.4614" gradientUnits="userSpaceOnUse">
<stop stop-color="#00A37E"/>
<stop offset="1" stop-color="#A3E635"/>
</linearGradient>
<linearGradient id="paint1_linear_396_1705" x1="26.4851" y1="16.553" x2="34.5337" y2="6.94653" gradientUnits="userSpaceOnUse">
<stop stop-color="#00A37E"/>
<stop offset="1" stop-color="#A3E635"/>
</linearGradient>
<linearGradient id="paint2_linear_396_1705" x1="6.98214" y1="39.9475" x2="17.0851" y2="23.3673" gradientUnits="userSpaceOnUse">
<stop stop-color="#00A37E"/>
<stop offset="1" stop-color="#A3E635"/>
</linearGradient>
</defs>
</svg>
