<svg width="45" height="45" viewBox="0 0 45 45" fill="none" xmlns="http://www.w3.org/2000/svg">
<g clip-path="url(#clip0_396_1702)">
<path d="M22.1765 0C19.2765 0 17.0588 2.21765 17.0588 5.11765V15.3529C17.0588 18.2529 19.2765 20.4706 22.1765 20.4706H32.4118L39.2353 27.2941V20.4706C42.1353 20.4706 44.3529 18.2529 44.3529 15.3529V5.11765C44.3529 2.21765 42.1353 0 39.2353 0H22.1765ZM29.3207 5.11765H32.2514L35.1309 15.3529H32.5721L31.8778 12.7941H29.319L28.681 15.3529H26.4412L29.3207 5.11765ZM30.7059 6.82353C30.5353 7.50588 30.3442 8.33835 30.1719 8.85012L29.6943 11.0882H31.7192L31.2381 8.84841C30.8986 8.33835 30.7059 7.50588 30.7059 6.82353ZM5.11765 17.0588C2.21765 17.0588 0 19.2765 0 22.1765V32.4118C0 35.3118 2.21765 37.5294 5.11765 37.5294V44.3529L11.9412 37.5294H22.1765C25.0765 37.5294 27.2941 35.3118 27.2941 32.4118V22.1765H22.1765C18.9353 22.1765 16.3662 19.9588 15.5133 17.0588H5.11765ZM12.9545 22.0161C15.8545 22.0161 17.2192 24.4044 17.2192 27.1338C17.2192 29.522 16.3986 31.0368 15.0339 31.7192C15.7163 32.0604 16.5249 32.2412 17.3778 32.4118L16.7398 34.1176C15.5457 33.7765 14.3072 33.2442 13.1131 32.7308C12.9425 32.5602 12.644 32.5721 12.4734 32.5721C10.4264 32.4015 8.52941 30.7059 8.52941 27.2941C8.52941 24.3941 10.2251 22.0161 12.9545 22.0161ZM12.9545 23.8824C11.5898 23.8824 10.9279 25.4176 10.9279 27.2941C10.9279 29.3412 11.5898 30.7059 12.9545 30.7059C14.3192 30.7059 15.0322 29.1706 15.0322 27.2941C15.0322 25.4176 14.3192 23.8824 12.9545 23.8824Z" fill="#00A37E"/>
</g>
<defs>
<clipPath id="clip0_396_1702">
<rect width="44.3529" height="44.3529" fill="white"/>
</clipPath>
</defs>
</svg>
