<svg width="37" height="37" viewBox="0 0 37 37" fill="none" xmlns="http://www.w3.org/2000/svg">
<g clip-path="url(#clip0_396_1699)">
<path fill-rule="evenodd" clip-rule="evenodd" d="M11.9516 1.80511C11.9037 1.37043 11.6854 0.972467 11.3446 0.698495C11.0037 0.424523 10.5681 0.2969 10.1333 0.34361C9.18014 0.447562 8.2384 0.553277 7.30811 0.660753L6.9804 0.700396C5.37413 0.888603 3.87848 1.61374 2.73586 2.75827C1.59325 3.90281 0.870625 5.39967 0.685112 7.00625L0.677184 7.08554C0.560898 8.08806 0.449017 9.10821 0.341541 10.146C0.296331 10.5819 0.426164 11.018 0.702479 11.3583C0.978794 11.6985 1.37896 11.9151 1.81493 11.9603C2.25091 12.0055 2.68699 11.8757 3.02724 11.5994C3.3675 11.323 3.58405 10.9229 3.62926 10.4869C3.73497 9.46852 3.84509 8.45542 3.95961 7.44761L3.96754 7.37625C4.06907 6.51113 4.45917 5.70545 5.07486 5.08928C5.69055 4.47311 6.49592 4.08238 7.36097 3.98018L7.68868 3.94054L10.4875 3.6234C10.9226 3.57617 11.3213 3.35814 11.5958 3.01722C11.8703 2.67629 11.9983 2.24033 11.9516 1.80511ZM25.0523 1.80511C25.0995 1.36995 25.3175 0.971323 25.6584 0.696797C25.9994 0.42227 26.4353 0.29429 26.8705 0.340967C27.822 0.444919 28.7628 0.550634 29.6931 0.65811L30.0235 0.697753C31.6297 0.886634 33.125 1.61239 34.2671 2.75741C35.4093 3.90242 36.1313 5.39959 36.3161 7.00625L36.3267 7.08554C36.4412 8.08982 36.5522 9.10997 36.6597 10.146C36.6944 10.5761 36.5595 11.0028 36.2836 11.3347C36.0078 11.6667 35.613 11.8774 35.1838 11.922C34.7545 11.9665 34.3249 11.8413 33.9868 11.5731C33.6486 11.3049 33.4289 10.915 33.3746 10.4869C33.2689 9.46852 33.1579 8.45542 33.0416 7.44761L33.0337 7.37625C32.9323 6.51152 32.5426 5.70616 31.9274 5.09003C31.3122 4.47391 30.5075 4.08294 29.6429 3.98018L29.3152 3.94054L26.5138 3.6234C26.0795 3.57487 25.6823 3.3563 25.4088 3.01552C25.1354 2.67474 25.0055 2.23951 25.0523 1.80511ZM18.5006 4.13611C17.5043 4.13611 16.5845 4.4189 15.9185 5.08754C15.2499 5.75354 14.9671 6.67325 14.9671 7.66961C14.9671 8.66597 15.2499 9.58304 15.9185 10.2517C16.1916 10.523 16.5026 10.7344 16.8515 10.886V12.654C15.2869 12.6673 13.6906 12.7148 12.2212 12.9078C11.2031 13.0353 10.2546 13.4922 9.52029 14.2089C8.78598 14.9255 8.30612 15.8626 8.15383 16.8773C7.98997 18.0111 7.98997 19.1581 7.98997 20.9341V21.0742C7.98997 22.8528 7.98997 23.9998 8.15383 25.1336C8.30612 26.1483 8.78598 27.0854 9.52029 27.802C10.2546 28.5187 11.2031 28.9756 12.2212 29.1032C14.2033 29.3595 16.4128 29.3595 18.4663 29.3595H18.5403C20.5938 29.3595 22.8058 29.3595 24.7853 29.1032C25.803 28.9751 26.7508 28.5179 27.4846 27.8013C28.2184 27.0847 28.6979 26.1479 28.85 25.1336C29.0165 23.9972 29.0165 22.8528 29.0165 21.0742V20.9341C29.0165 19.1581 29.0165 18.0111 28.85 16.8773C28.6979 15.863 28.2184 14.9262 27.4846 14.2096C26.7508 13.493 25.803 13.0358 24.7853 12.9078C23.2482 12.7329 21.7021 12.6482 20.155 12.654V10.8833C20.5004 10.7336 20.8096 10.523 21.0827 10.2517C21.7513 9.58304 22.0341 8.66597 22.0341 7.66961C22.0341 6.67325 21.7513 5.75354 21.0827 5.08754C20.414 4.4189 19.497 4.13611 18.5006 4.13611ZM21.9363 18.8436C21.4982 18.8436 21.0781 19.0176 20.7683 19.3274C20.4586 19.6372 20.2845 20.0573 20.2845 20.4954V21.5182C20.2845 21.9563 20.4586 22.3764 20.7683 22.6862C21.0781 22.9959 21.4982 23.17 21.9363 23.17C22.3744 23.17 22.7945 22.9959 23.1043 22.6862C23.4141 22.3764 23.5881 21.9563 23.5881 21.5182V20.4954C23.5881 20.0573 23.4141 19.6372 23.1043 19.3274C22.7945 19.0176 22.3744 18.8436 21.9363 18.8436ZM13.4184 20.4954C13.4184 20.0573 13.5924 19.6372 13.9022 19.3274C14.212 19.0176 14.6321 18.8436 15.0702 18.8436C15.5083 18.8436 15.9284 19.0176 16.2382 19.3274C16.5479 19.6372 16.722 20.0573 16.722 20.4954V21.5182C16.722 21.9563 16.5479 22.3764 16.2382 22.6862C15.9284 22.9959 15.5083 23.17 15.0702 23.17C14.6321 23.17 14.212 22.9959 13.9022 22.6862C13.5924 22.3764 13.4184 21.9563 13.4184 21.5182V20.4954ZM26.8705 36.6618C26.4349 36.7084 25.9986 36.58 25.6576 36.3049C25.3166 36.0299 25.0989 35.6306 25.0523 35.195C25.0056 34.7593 25.134 34.323 25.4091 33.982C25.6841 33.6411 26.0834 33.4233 26.519 33.3767L29.3178 33.0595L29.6455 33.0199C30.5097 32.9173 31.3142 32.5267 31.9293 31.9111C32.5444 31.2955 32.9344 30.4907 33.0363 29.6265L33.0443 29.5525C33.1588 28.5464 33.2698 27.5333 33.3773 26.5132C33.395 26.2938 33.4564 26.0802 33.5578 25.8849C33.6592 25.6896 33.7987 25.5165 33.968 25.3759C34.1372 25.2352 34.3329 25.1298 34.5435 25.0658C34.754 25.0018 34.9753 24.9806 35.1942 25.0033C35.4131 25.026 35.6252 25.0922 35.8182 25.1981C36.0111 25.304 36.181 25.4473 36.3178 25.6197C36.4545 25.7921 36.5555 25.9902 36.6146 26.2021C36.6738 26.4141 36.69 26.6358 36.6623 26.8541C36.5531 27.8884 36.4421 28.9094 36.3293 29.9172L36.3188 29.9938C36.1339 31.6005 35.4119 33.0977 34.2698 34.2427C33.1276 35.3877 31.6323 36.1134 30.0261 36.3023L29.6984 36.3393C28.7681 36.4503 27.8255 36.5578 26.8705 36.6618ZM10.136 36.6618C10.5716 36.7087 11.008 36.5807 11.3493 36.3059C11.6905 36.031 11.9086 35.6319 11.9556 35.1963C12.0025 34.7607 11.8745 34.3242 11.5997 33.983C11.3249 33.6417 10.9257 33.4236 10.4901 33.3767L7.69133 33.0595L7.36361 33.0199C6.49801 32.9189 5.69173 32.5291 5.07503 31.9133C4.45832 31.2976 4.06722 30.4919 3.9649 29.6265L3.95697 29.5525C3.84245 28.5464 3.73233 27.5333 3.62661 26.5132C3.5814 26.0772 3.36485 25.677 3.0246 25.4007C2.68435 25.1244 2.24827 24.9946 1.81229 25.0398C1.37631 25.085 0.976151 25.3015 0.699836 25.6418C0.423522 25.9821 0.293688 26.4181 0.338898 26.8541C0.446374 27.8884 0.558255 28.9094 0.674541 29.9172L0.68247 29.9938C0.867425 31.6009 1.5898 33.0984 2.73247 34.2434C3.87513 35.3885 5.37109 36.114 6.97776 36.3023L7.30547 36.3393C8.23399 36.4503 9.17573 36.5569 10.1307 36.6591" fill="#00A37E"/>
</g>
<defs>
<clipPath id="clip0_396_1699">
<rect width="37" height="37" fill="white"/>
</clipPath>
</defs>
</svg>
