<svg width="36" height="28" viewBox="0 0 36 28" fill="none" xmlns="http://www.w3.org/2000/svg">
<path d="M0.292969 21.1914C0.0976562 20.2148 0 19.1569 0 18.0176C0 15.8366 0.374349 13.5579 1.12305 11.1816C1.87174 8.80534 3.0599 6.62435 4.6875 4.63867C6.3151 2.62044 8.46354 1.13932 11.1328 0.195312C11.3932 0.0651042 11.6862 0 12.0117 0C12.3047 0 12.5814 0.0976562 12.8418 0.292969C13.1022 0.488281 13.2324 0.895182 13.2324 1.51367V4.19922C11.6699 5.14323 10.2539 6.54297 8.98438 8.39844C7.7474 10.2539 7.12891 12.2559 7.12891 14.4043C7.19401 14.3392 7.38932 14.3066 7.71484 14.3066C9.83073 14.3066 11.5397 14.974 12.8418 16.3086C14.1439 17.6107 14.7949 19.2383 14.7949 21.1914C14.7949 23.0469 14.1439 24.6257 12.8418 25.9277C11.5397 27.2298 9.83073 27.8809 7.71484 27.8809C5.56641 27.8809 3.8737 27.2298 2.63672 25.9277C1.43229 24.6257 0.651042 23.0469 0.292969 21.1914ZM20.7031 21.1914C20.5078 20.2148 20.4102 19.1569 20.4102 18.0176C20.4102 15.8366 20.7845 13.5579 21.5332 11.1816C22.2819 8.80534 23.4701 6.62435 25.0977 4.63867C26.7253 2.62044 28.8574 1.13932 31.4941 0.195312C31.8197 0.0651042 32.1289 0 32.4219 0C32.7148 0 32.9753 0.0976562 33.2031 0.292969C33.4635 0.488281 33.5938 0.895182 33.5938 1.51367V4.19922C32.0638 5.14323 30.6641 6.54297 29.3945 8.39844C28.1576 10.2539 27.5391 12.2559 27.5391 14.4043C27.6042 14.3392 27.7995 14.3066 28.125 14.3066C30.2409 14.3066 31.9499 14.974 33.252 16.3086C34.554 17.6107 35.2051 19.2383 35.2051 21.1914C35.2051 23.0469 34.554 24.6257 33.252 25.9277C31.9499 27.2298 30.2409 27.8809 28.125 27.8809C25.9766 27.8809 24.2839 27.2298 23.0469 25.9277C21.8424 24.6257 21.0612 23.0469 20.7031 21.1914Z" fill="#47BDA1"/>
</svg>
